<svg xmlns="http://www.w3.org/2000/svg" width="253.089" height="253.001" version="1.0"><g style="overflow:visible"><path d="M17.717 51.078c.63-.675.963-1.45.963-2.379 0-.928-.333-1.706-.963-2.341-.668-.665-1.448-.999-2.375-.999-.93 0-1.709.334-2.375.999A3.21 3.21 0 0 0 12 48.699c0 .929.337 1.704.967 2.379.666.627 1.444.962 2.375.962.927 0 1.707-.335 2.375-.962z" style="fill:#0071bc;stroke:#0071bc" transform="scale(2.59655)"/><path d="M21.28 32.372c-4.491 0-8.351 1.597-11.504 4.786-3.228 3.192-4.823 7.052-4.823 11.541 0 4.524 1.595 8.389 4.823 11.541 3.153 3.191 7.013 4.784 11.504 4.784 4.526 0 8.385-1.593 11.575-4.784 3.153-3.152 4.748-7.017 4.748-11.541 0-4.489-1.595-8.349-4.748-11.541-3.19-3.19-7.048-4.786-11.575-4.786" style="fill:none;stroke:#0071bc" transform="scale(2.59655)"/><path d="M30.555 20.911c-7.68-.041-14.21 2.705-19.627 8.123-5.455 5.457-8.202 11.986-8.202 19.704 0 7.675 2.747 14.244 8.202 19.664 5.417 5.415 11.947 8.122 19.627 8.122 7.717 0 14.247-2.707 19.703-8.122 5.417-5.42 8.125-11.989 8.125-19.664 0-7.718-2.708-14.247-8.125-19.704-5.456-5.418-11.986-8.164-19.703-8.123" style="fill:none;stroke:#0071bc" transform="scale(2.59655)"/><path d="M48.735.5C35.451.5 24.06 5.212 14.673 14.598 5.248 24.024.537 35.375.5 48.699c.037 13.356 4.748 24.71 14.173 34.136 9.387 9.39 20.778 14.102 34.062 14.102 13.359 0 24.712-4.712 34.136-14.102 9.425-9.426 14.1-20.779 14.1-34.136 0-13.323-4.675-24.675-14.1-34.101C73.448 5.212 62.095.5 48.735.5" style="fill:none;stroke:#0071bc" transform="scale(2.59655)"/><path d="M15.343 40.54c-2.226 0-4.156.809-5.753 2.368-1.594 1.599-2.411 3.524-2.411 5.791 0 2.258.817 4.192 2.411 5.787 1.597 1.599 3.527 2.375 5.753 2.375 2.263 0 4.192-.776 5.787-2.375 1.595-1.595 2.376-3.529 2.376-5.787 0-2.267-.782-4.192-2.376-5.791-1.595-1.56-3.524-2.368-5.787-2.368" style="fill:none;stroke:#0071bc" transform="scale(2.59655)"/><g><path d="M82.389 60.054h-2.968l-5.379 13.8h2.968l1.15-3.15h5.49l1.225 3.15h3.044l-5.53-13.8zm-1.521 3.192 1.892 5.156h-3.747l1.855-5.156zM44.172 60.054h-2.784l-5.603 9.164v-9.164h-2.598v13.8h2.783l5.564-9.014v9.014h2.636v-13.8h.002zM57.418 61.612c-.558-.705-1.188-1.151-2.002-1.372-.52-.109-1.635-.186-3.305-.186h-4.487v13.8h2.781v-5.229h1.819c1.261 0 2.227-.037 2.893-.186.482-.109.966-.333 1.447-.63.482-.34.854-.818 1.187-1.372.298-.598.448-1.3.448-2.155 0-1.075-.261-2.004-.781-2.67zm-7.013.78h1.373c.964 0 1.669.035 2.003.07a1.873 1.873 0 0 1 1.559 1.855c0 .412-.111.783-.334 1.081-.223.33-.482.551-.852.666-.373.148-1.114.223-2.226.223h-1.522v-3.895h-.001zM70.923 61.795c-1.147-1.335-2.706-2.003-4.711-2.003-1.56 0-2.822.375-3.785 1.114-.964.744-1.595 1.706-1.854 2.932l2.745.629a3.638 3.638 0 0 1 1.075-1.634c.52-.406 1.15-.628 1.893-.628.967 0 1.782.331 2.338 1.04.594.667.928 1.521 1.039 2.557h-4.34v2.304h4.34c-.184 1.261-.557 2.188-1.113 2.744-.593.595-1.296.854-2.114.854-.781 0-1.445-.225-2.042-.706-.555-.484-.924-1.225-1.075-2.228l-2.783.893c.705 2.968 2.671 4.45 5.825 4.45 1.262 0 2.378-.33 3.302-.887a6.354 6.354 0 0 0 2.153-2.449c.518-1.041.78-2.306.78-3.752-.001-2.148-.558-3.889-1.673-5.23zM9.049 73.854h2.999l3.325-17.41 3.539 17.41h3.341l2.687-8.629 2.181 8.629h3.046l-3.508-13.8h-3.234l-2.595 8.414-3.988-19.769h-2.999L9.049 73.854z" style="fill:#0071bc" transform="scale(2.59655)"/></g></g></svg>